# xmcd CD database file
#
# Track frame offsets:
#	150
#	20950
#	48900
#	67725
#	92517
#	105377
#	132895
#	152425
#	171945
#	201150
#
# Disc length: 2915 seconds
#
# Revision: 2
# Processed by: cddbd v1.5.1PL2 Copyright (c) Steve Scherf et al.
# Submitted via: CDex 1.51
#
DISCID=780b610a
DTITLE=LaVerne Butler - No Looking Back
DYEAR=1992
DGENRE=Jazz
TTITLE0=The Song Is You
TTITLE1=I Cover the Waterfront
TTITLE2=Sunday in New York
TTITLE3=Speak Low
TTITLE4=It's Alright With Me
TTITLE5=Easy to Love
TTITLE6=Isn't It a Pity
TTITLE7=Make Me Rainbows
TTITLE8=Ballad Medley
TTITLE9=Come Fly With Me
EXTD=YEAR: 1992
EXTT0=
EXTT1=
EXTT2=
EXTT3=
EXTT4=
EXTT5=
EXTT6=
EXTT7=
EXTT8=
EXTT9=
PLAYORDER=
